<svg xmlns="http://www.w3.org/2000/svg" viewBox="0 0 980 620" font-family="-apple-system,Segoe UI,Roboto,sans-serif">
  <defs>
    <marker id="arrow" markerWidth="9" markerHeight="9" refX="7" refY="3" orient="auto">
      <path d="M0,0 L7,3 L0,6 Z" fill="#5b6470"/>
    </marker>
    <style>
      .t{font-size:13px;fill:#1b1f24;font-weight:600}
      .s{font-size:11px;fill:#5b6470}
      .lbl{font-size:11px;fill:#7a828c;font-style:italic}
      .edge{stroke:#5b6470;stroke-width:1.6;fill:none;marker-end:url(#arrow)}
    </style>
  </defs>

  <rect x="0" y="0" width="980" height="620" fill="#ffffff"/>
  <text x="28" y="40" font-size="19" font-weight="700" fill="#1b1f24">k8s-gitops-platform — architecture</text>

  <!-- Developer -->
  <rect x="60" y="76" width="170" height="58" rx="10" fill="#eef2ff" stroke="#6366f1"/>
  <text class="t" x="78" y="102">Developer</text>
  <text class="s" x="78" y="121">git push → main</text>

  <!-- GitHub Actions CI -->
  <rect x="60" y="182" width="330" height="208" rx="10" fill="#f1f5f9" stroke="#0ea5e9"/>
  <text class="t" x="78" y="208">GitHub Actions (CI)</text>
  <rect x="78" y="222" width="135" height="34" rx="7" fill="#ffffff" stroke="#94a3b8"/>
  <text class="s" x="90" y="243">pytest</text>
  <rect x="227" y="222" width="145" height="34" rx="7" fill="#ffffff" stroke="#94a3b8"/>
  <text class="s" x="239" y="243">helm lint</text>
  <rect x="78" y="266" width="135" height="34" rx="7" fill="#ffffff" stroke="#94a3b8"/>
  <text class="s" x="90" y="287">docker build</text>
  <rect x="227" y="266" width="145" height="34" rx="7" fill="#fff7ed" stroke="#f59e0b"/>
  <text class="s" x="239" y="287">Trivy scan</text>
  <rect x="78" y="310" width="135" height="34" rx="7" fill="#ecfdf5" stroke="#10b981"/>
  <text class="s" x="90" y="331">push → GHCR</text>
  <rect x="227" y="310" width="145" height="34" rx="7" fill="#ecfdf5" stroke="#10b981"/>
  <text class="s" x="239" y="331">bump tag → git</text>

  <!-- Git repo -->
  <rect x="440" y="180" width="160" height="60" rx="10" fill="#eef2ff" stroke="#6366f1"/>
  <text class="t" x="458" y="206">Git repo</text>
  <text class="s" x="458" y="225">charts/ · argocd/</text>

  <!-- GHCR -->
  <rect x="440" y="312" width="160" height="60" rx="10" fill="#f1f5f9" stroke="#0ea5e9"/>
  <text class="t" x="458" y="338">GHCR</text>
  <text class="s" x="458" y="357">container image</text>

  <!-- ArgoCD -->
  <rect x="720" y="180" width="190" height="60" rx="10" fill="#fdf2f8" stroke="#db2777"/>
  <text class="t" x="738" y="206">ArgoCD</text>
  <text class="s" x="738" y="225">app-of-apps · auto-sync</text>

  <!-- Cluster -->
  <rect x="630" y="300" width="320" height="296" rx="12" fill="#f8fafc" stroke="#64748b" stroke-dasharray="6 4"/>
  <text class="t" x="648" y="326">Kubernetes (k3d / k3s-on-EC2)</text>

  <rect x="648" y="342" width="140" height="86" rx="9" fill="#ecfdf5" stroke="#10b981"/>
  <text class="t" x="664" y="366">myapp</text>
  <text class="s" x="664" y="386">Deployment + HPA</text>
  <text class="s" x="664" y="404">Service</text>

  <rect x="802" y="342" width="130" height="86" rx="9" fill="#fff7ed" stroke="#f59e0b"/>
  <text class="t" x="818" y="366">Prometheus</text>
  <text class="s" x="818" y="386">scrapes</text>
  <text class="s" x="818" y="404">/metrics</text>

  <rect x="648" y="448" width="140" height="60" rx="9" fill="#eff6ff" stroke="#3b82f6"/>
  <text class="t" x="664" y="472">Ingress</text>
  <text class="s" x="664" y="491">Traefik</text>

  <rect x="802" y="448" width="130" height="60" rx="9" fill="#fef2f2" stroke="#ef4444"/>
  <text class="t" x="818" y="472">Grafana</text>
  <text class="s" x="818" y="491">+ alerts</text>

  <!-- edges -->
  <path class="edge" d="M145,134 L145,182"/>

  <path class="edge" d="M390,206 L440,206"/>
  <text class="lbl" x="398" y="198">tag bump</text>

  <path class="edge" d="M390,340 L440,340"/>
  <text class="lbl" x="400" y="332">image</text>

  <path class="edge" d="M600,205 L720,205"/>
  <text class="lbl" x="612" y="197">watch / sync</text>

  <path class="edge" d="M600,344 C620,344 620,384 648,384"/>

  <path class="edge" d="M815,240 L760,342"/>
  <text class="lbl" x="792" y="286">deploy</text>

  <path class="edge" d="M788,384 L802,384"/>

  <path class="edge" d="M867,428 L867,448"/>

  <path class="edge" d="M718,448 L718,428"/>
  <text class="lbl" x="690" y="442">route</text>
</svg>
